<svg width="17" height="17" viewBox="0 0 17 17" fill="none" xmlns="http://www.w3.org/2000/svg">
<path d="M8.5 16C12.6422 16 16 12.6422 16 8.5C16 4.35775 12.6422 1 8.5 1C4.35775 1 1 4.35775 1 8.5C1 9.7 1.282 10.834 1.78225 11.8397C1.91575 12.1067 1.96 12.412 1.88275 12.7007L1.4365 14.3702C1.39247 14.5354 1.39263 14.7093 1.43698 14.8743C1.48133 15.0394 1.5683 15.19 1.68917 15.3108C1.81004 15.4317 1.96056 15.5187 2.12565 15.563C2.29074 15.6074 2.46458 15.6075 2.62975 15.5635L4.29925 15.1172C4.58905 15.0443 4.89552 15.0798 5.161 15.217C6.19819 15.7335 7.34133 16.0015 8.5 16Z" stroke="#AEAEAE"/>
</svg>
