<svg width="24" height="24" viewBox="0 0 24 24" fill="none" xmlns="http://www.w3.org/2000/svg">
  <path d="M12 20.27C15.53 20.27 18.82 18.19 21.11 14.59C22.01 13.18 22.01 10.81 21.11 9.39997C18.82 5.79997 15.53 3.71997 12 3.71997C8.47003 3.71997 5.18003 5.79997 2.89003 9.39997C1.99003 10.81 1.99003 13.18 2.89003 14.59C5.18003 18.19 8.47003 20.27 12 20.27Z" stroke="#475069" stroke-width="1.5" stroke-linecap="round" stroke-linejoin="round"/>
  <path d="M3 3L21 21" stroke="#475069" stroke-width="1.5" stroke-linecap="round" stroke-linejoin="round"/>
  <path d="M9.17 9.17C8.7397 9.62247 8.41998 10.2595 8.41998 11C8.41998 12.1 9.31998 13 10.42 13C11.1595 13 11.7965 12.6803 12.25 12.25L9.17 9.17Z" fill="#475069"/>
</svg>
