<svg width="17" height="17" viewBox="0 0 17 17" fill="none" xmlns="http://www.w3.org/2000/svg">
<path d="M14.1717 4.75C14.212 4.52015 14.2015 4.28428 14.1409 4.05892C14.0804 3.83357 13.9712 3.62421 13.8211 3.44554C13.671 3.26686 13.4836 3.1232 13.2721 3.02464C13.0606 2.92607 12.8301 2.875 12.5967 2.875H4.40375C4.1704 2.875 3.93988 2.92607 3.72836 3.02464C3.51685 3.1232 3.32947 3.26686 3.17938 3.44554C3.0293 3.62421 2.92013 3.83357 2.85956 4.05892C2.79899 4.28428 2.78847 4.52015 2.82875 4.75M12.6252 2.875C12.6462 2.68 12.6575 2.58325 12.6575 2.503C12.6583 2.13227 12.5218 1.77437 12.2743 1.49835C12.0268 1.22232 11.6859 1.04773 11.3172 1.00825C11.2377 1 11.1402 1 10.9452 1H6.05525C5.86025 1 5.762 1 5.6825 1.00825C5.31387 1.04773 4.97293 1.22232 4.72544 1.49835C4.47794 1.77437 4.34144 2.13227 4.34225 2.503C4.34225 2.58325 4.35275 2.68075 4.3745 2.875M1.28825 9.84475C0.952997 7.47175 0.785747 6.286 1.49675 5.51725C2.20775 4.75 3.47375 4.75 6.00425 4.75H10.9962C13.5267 4.75 14.7927 4.75 15.5037 5.518C16.214 6.286 16.0467 7.47175 15.7122 9.84475L15.3957 12.0947C15.1332 13.9547 15.002 14.8855 14.3292 15.4427C13.6565 16 12.6642 16 10.679 16H6.3215C4.337 16 3.344 16 2.67125 15.4427C1.9985 14.8855 1.86725 13.9555 1.60475 12.0947L1.28825 9.84475Z" stroke="#AEAEAE"/>
<path d="M11.8753 9.25C12.4966 9.25 13.0003 8.74632 13.0003 8.125C13.0003 7.50368 12.4966 7 11.8753 7C11.254 7 10.7503 7.50368 10.7503 8.125C10.7503 8.74632 11.254 9.25 11.8753 9.25Z" stroke="#AEAEAE"/>
<path d="M14.5002 14.5L12.3372 12.8882C11.6397 12.3692 10.6002 12.3175 9.83221 12.7637L9.63271 12.88C9.09871 13.1905 8.37271 13.1387 7.91221 12.757L5.03296 10.3742C4.45846 9.89872 3.53671 9.87322 2.92546 10.3157L1.93246 11.0357" stroke="#AEAEAE" stroke-linecap="round"/>
</svg>
