<svg width="17" height="16" viewBox="0 0 17 16" fill="none" xmlns="http://www.w3.org/2000/svg">
<path d="M15.9598 14.9572C14.7203 12.8143 12.7334 11.3511 10.4314 10.8237C11.5253 10.3755 12.4296 9.5614 12.9898 8.52047C13.5501 7.47955 13.7315 6.27638 13.5032 5.11652C13.2748 3.95667 12.6507 2.9121 11.7377 2.16129C10.8246 1.41047 9.67914 1 8.49702 1C7.31489 1 6.16944 1.41047 5.25637 2.16129C4.34329 2.9121 3.71926 3.95667 3.49087 5.11652C3.26249 6.27638 3.44392 7.47955 4.00419 8.52047C4.56445 9.5614 5.46878 10.3755 6.56266 10.8237C4.26363 11.3489 2.27374 12.8143 1.03419 14.9572C0.998309 15.0258 0.990317 15.1056 1.01189 15.18C1.03345 15.2543 1.08291 15.3175 1.14993 15.3562C1.21695 15.395 1.29635 15.4063 1.37154 15.3879C1.44673 15.3695 1.51189 15.3227 1.55342 15.2574C3.01958 12.7205 5.61723 11.2056 8.49702 11.2056C11.3768 11.2056 13.9745 12.7205 15.4406 15.2574C15.4669 15.303 15.5048 15.3408 15.5503 15.3672C15.5959 15.3935 15.6476 15.4074 15.7002 15.4074C15.753 15.4076 15.8048 15.3936 15.8503 15.3669C15.9191 15.3271 15.9693 15.2616 15.9898 15.1847C16.0104 15.1079 15.9996 15.0261 15.9598 14.9572ZM3.99501 6.1033C3.99501 5.21289 4.25905 4.34247 4.75374 3.60212C5.24842 2.86177 5.95154 2.28474 6.77417 1.94399C7.59681 1.60324 8.50201 1.51409 9.37531 1.6878C10.2486 1.86151 11.0508 2.29029 11.6804 2.9199C12.31 3.54952 12.7388 4.3517 12.9125 5.225C13.0862 6.09831 12.9971 7.00351 12.6563 7.82614C12.3156 8.64878 11.7385 9.3519 10.9982 9.84658C10.2578 10.3413 9.38743 10.6053 8.49702 10.6053C7.30344 10.6039 6.15914 10.1292 5.31515 9.28517C4.47116 8.44118 3.9964 7.29688 3.99501 6.1033Z" fill="#AEAEAE" stroke="#AEAEAE" stroke-width="0.5"/>
</svg>
