<svg width="18" height="18" viewBox="0 0 18 18" fill="none" xmlns="http://www.w3.org/2000/svg">
<path d="M1 17V1" stroke="white" stroke-width="1.5" stroke-linecap="round" stroke-linejoin="round"/>
<path d="M17 1V17" stroke="white" stroke-width="1.5" stroke-linecap="round" stroke-linejoin="round"/>
<path d="M5.2666 1H12.7333V7.4H5.2666V1Z" stroke="white" stroke-width="1.5" stroke-linecap="round" stroke-linejoin="round"/>
<path d="M5.2666 10.6H12.7333V17H5.2666V10.6Z" stroke="white" stroke-width="1.5" stroke-linecap="round" stroke-linejoin="round"/>
<path d="M3.40003 2.60001C3.40003 2.65275 3.38439 2.70431 3.35509 2.74816C3.32579 2.79202 3.28414 2.82619 3.23541 2.84638C3.18669 2.86656 3.13307 2.87184 3.08134 2.86155C3.02961 2.85126 2.9821 2.82587 2.9448 2.78857C2.90751 2.75128 2.88211 2.70376 2.87182 2.65203C2.86153 2.60031 2.86681 2.54669 2.887 2.49796C2.90718 2.44923 2.94136 2.40759 2.98521 2.37828C3.02907 2.34898 3.08062 2.33334 3.13337 2.33334C3.20409 2.33334 3.27192 2.36144 3.32193 2.41145C3.37194 2.46146 3.40003 2.52929 3.40003 2.60001Z" stroke="white" stroke-width="1.5" stroke-linecap="round" stroke-linejoin="round"/>
<path d="M3.40003 6.86667C3.40003 6.91941 3.38439 6.97097 3.35509 7.01482C3.32579 7.05868 3.28414 7.09286 3.23541 7.11304C3.18669 7.13322 3.13307 7.1385 3.08134 7.12822C3.02961 7.11793 2.9821 7.09253 2.9448 7.05523C2.90751 7.01794 2.88211 6.97043 2.87182 6.9187C2.86153 6.86697 2.86681 6.81335 2.887 6.76462C2.90718 6.7159 2.94136 6.67425 2.98521 6.64495C3.02907 6.61565 3.08062 6.60001 3.13337 6.60001C3.20409 6.60001 3.27192 6.6281 3.32193 6.67811C3.37194 6.72812 3.40003 6.79595 3.40003 6.86667Z" stroke="white" stroke-width="1.5" stroke-linecap="round" stroke-linejoin="round"/>
<path d="M3.40003 11.1333C3.40003 11.1861 3.38439 11.2376 3.35509 11.2815C3.32579 11.3253 3.28414 11.3595 3.23541 11.3797C3.18669 11.3999 3.13307 11.4052 3.08134 11.3949C3.02961 11.3846 2.9821 11.3592 2.9448 11.3219C2.90751 11.2846 2.88211 11.2371 2.87182 11.1854C2.86153 11.1336 2.86681 11.08 2.887 11.0313C2.90718 10.9826 2.94136 10.9409 2.98521 10.9116C3.02907 10.8823 3.08062 10.8667 3.13337 10.8667C3.20409 10.8667 3.27192 10.8948 3.32193 10.9448C3.37194 10.9948 3.40003 11.0626 3.40003 11.1333Z" stroke="white" stroke-width="1.5" stroke-linecap="round" stroke-linejoin="round"/>
<path d="M3.40003 15.4C3.40003 15.4527 3.38439 15.5043 3.35509 15.5482C3.32579 15.592 3.28414 15.6262 3.23541 15.6464C3.18669 15.6665 3.13307 15.6718 3.08134 15.6615C3.02961 15.6513 2.9821 15.6259 2.9448 15.5886C2.90751 15.5513 2.88211 15.5037 2.87182 15.452C2.86153 15.4003 2.86681 15.3467 2.887 15.2979C2.90718 15.2492 2.94136 15.2076 2.98521 15.1783C3.02907 15.149 3.08062 15.1333 3.13337 15.1333C3.20409 15.1333 3.27192 15.1614 3.32193 15.2114C3.37194 15.2614 3.40003 15.3293 3.40003 15.4Z" stroke="white" stroke-width="1.5" stroke-linecap="round" stroke-linejoin="round"/>
<path d="M15.1334 2.60001C15.1334 2.65275 15.1178 2.70431 15.0885 2.74816C15.0592 2.79202 15.0175 2.82619 14.9688 2.84638C14.9201 2.86656 14.8665 2.87184 14.8147 2.86155C14.763 2.85126 14.7155 2.82587 14.6782 2.78857C14.6409 2.75128 14.6155 2.70376 14.6052 2.65203C14.5949 2.60031 14.6002 2.54669 14.6204 2.49796C14.6406 2.44923 14.6748 2.40759 14.7186 2.37828C14.7625 2.34898 14.814 2.33334 14.8668 2.33334C14.9375 2.33334 15.0053 2.36144 15.0553 2.41145C15.1053 2.46146 15.1334 2.52929 15.1334 2.60001Z" stroke="white" stroke-width="1.5" stroke-linecap="round" stroke-linejoin="round"/>
<path d="M15.1334 6.86667C15.1334 6.91941 15.1178 6.97097 15.0885 7.01482C15.0592 7.05868 15.0175 7.09286 14.9688 7.11304C14.9201 7.13322 14.8665 7.1385 14.8147 7.12822C14.763 7.11793 14.7155 7.09253 14.6782 7.05523C14.6409 7.01794 14.6155 6.97043 14.6052 6.9187C14.5949 6.86697 14.6002 6.81335 14.6204 6.76462C14.6406 6.7159 14.6748 6.67425 14.7186 6.64495C14.7625 6.61565 14.814 6.60001 14.8668 6.60001C14.9375 6.60001 15.0053 6.6281 15.0553 6.67811C15.1053 6.72812 15.1334 6.79595 15.1334 6.86667Z" stroke="white" stroke-width="1.5" stroke-linecap="round" stroke-linejoin="round"/>
<path d="M15.1334 11.1333C15.1334 11.1861 15.1178 11.2376 15.0885 11.2815C15.0592 11.3253 15.0175 11.3595 14.9688 11.3797C14.9201 11.3999 14.8665 11.4052 14.8147 11.3949C14.763 11.3846 14.7155 11.3592 14.6782 11.3219C14.6409 11.2846 14.6155 11.2371 14.6052 11.1854C14.5949 11.1336 14.6002 11.08 14.6204 11.0313C14.6406 10.9826 14.6748 10.9409 14.7186 10.9116C14.7625 10.8823 14.814 10.8667 14.8668 10.8667C14.9375 10.8667 15.0053 10.8948 15.0553 10.9448C15.1053 10.9948 15.1334 11.0626 15.1334 11.1333Z" stroke="white" stroke-width="1.5" stroke-linecap="round" stroke-linejoin="round"/>
<path d="M15.1334 15.4C15.1334 15.4527 15.1178 15.5043 15.0885 15.5482C15.0592 15.592 15.0175 15.6262 14.9688 15.6464C14.9201 15.6665 14.8665 15.6718 14.8147 15.6615C14.763 15.6513 14.7155 15.6259 14.6782 15.5886C14.6409 15.5513 14.6155 15.5037 14.6052 15.452C14.5949 15.4003 14.6002 15.3467 14.6204 15.2979C14.6406 15.2492 14.6748 15.2076 14.7186 15.1783C14.7625 15.149 14.814 15.1333 14.8668 15.1333C14.9375 15.1333 15.0053 15.1614 15.0553 15.2114C15.1053 15.2614 15.1334 15.3293 15.1334 15.4Z" stroke="white" stroke-width="1.5" stroke-linecap="round" stroke-linejoin="round"/>
</svg>
