<svg width="20" height="20" viewBox="0 0 20 20" fill="none" xmlns="http://www.w3.org/2000/svg">
<path d="M2.38452 3.59999H17.6153V14.7692H2.38452V3.59999Z" stroke="white" stroke-width="1.5" stroke-linecap="round" stroke-linejoin="round"/>
<path d="M12.5383 3.59999V14.7692" stroke="white" stroke-width="1.5" stroke-linecap="round" stroke-linejoin="round"/>
<path d="M14.5691 9.69229H15.5845" stroke="white" stroke-width="1.5" stroke-linecap="round" stroke-linejoin="round"/>
<path d="M14.5691 11.7231H15.5845" stroke="white" stroke-width="1.5" stroke-linecap="round" stroke-linejoin="round"/>
<path d="M15.0768 6.89999C15.1271 6.89999 15.1761 6.91488 15.2179 6.94277C15.2596 6.97067 15.2922 7.01031 15.3114 7.0567C15.3306 7.10308 15.3356 7.15412 15.3258 7.20336C15.316 7.2526 15.2918 7.29784 15.2563 7.33334C15.2208 7.36884 15.1756 7.39301 15.1264 7.40281C15.0771 7.4126 15.0261 7.40758 14.9797 7.38836C14.9333 7.36915 14.8937 7.33661 14.8658 7.29487C14.8379 7.25312 14.823 7.20405 14.823 7.15384C14.823 7.08652 14.8497 7.02195 14.8973 6.97434C14.945 6.92674 15.0095 6.89999 15.0768 6.89999" stroke="white" stroke-width="1.5" stroke-linecap="round" stroke-linejoin="round"/>
<path d="M3.3999 16.8L5.43067 14.7692" stroke="white" stroke-width="1.5" stroke-linecap="round" stroke-linejoin="round"/>
<path d="M16.5999 16.8L14.5691 14.7692" stroke="white" stroke-width="1.5" stroke-linecap="round" stroke-linejoin="round"/>
</svg>
